<svg fill="none" height="32" viewBox="0 0 129 32" width="129" xmlns="http://www.w3.org/2000/svg"><g fill="#fff"><path d="m15.41 16.1659c.7062.2607 1.3419.6637 1.9069 1.1615.612.5689 1.1064 1.2563 1.436 2.0622.3531.8059.5179 1.683.5179 2.6074 0 1.1615-.2589 2.2282-.8004 3.1763-.5415.9482-1.2712 1.7067-2.2129 2.2519-.9417.5451-1.9775.8296-3.1546.8296h-4.66125c-.04708 0-.07062-.0237-.07062-.0711v-4.3378c0-.3556.04708-.64.14125-.8296.09417-.1897.25896-.3793.47083-.5452.02354-.0237.02354-.0237.02354-.0474s-.02354-.0237-.07062-.0237h-.58854-7.533334c-.047083 0-.070626-.0237-.070626-.0711v-.5689c0-.0474.023543-.0711.070626-.0711h7.533334v-4.646h-.47083c-.04709 0-.07063-.0237-.09417-.0474l-.32959-1.114c-.02354-.0474.00001-.0712.07063-.0712h3.74317 1.8597c.8005-.0474 1.5773.0712 2.2836.3556zm.2589 10.1215c.7298-.4504 1.2948-1.0667 1.6715-1.8252.4002-.7585.5885-1.5881.5885-2.4889 0-.9007-.1883-1.7304-.5885-2.4889s-.9417-1.3511-1.6715-1.8252c-.7297-.4503-1.5772-.6874-2.5425-.6874h-3.31933v4.646h2.73083c.0471 0 .0706.0237.0706.0711v.5689c0 .0474-.0235.0711-.0706.0711h-1.6479c-.3061 0-.5886.0948-.7769.3081-.21186.2133-.30603.4741-.30603.8059v3.5082h3.31933c.9653.0237 1.8128-.2134 2.5425-.6637zm13.6307-9.197c.871.4977 1.5537 1.1851 2.0481 2.0622.4944.877.7533 1.8252.7533 2.8444 0 1.0193-.2589 1.9674-.7533 2.8445-.4944.877-1.1771 1.5644-2.0481 2.0622-.8711.4978-1.7892.7585-2.825.7585-1.0359 0-1.9775-.2607-2.825-.7585-.8711-.5215-1.5538-1.2089-2.0482-2.0622-.4943-.8771-.7533-1.8015-.7533-2.8445s.259-1.9911.7533-2.8444c.4944-.8771 1.1771-1.5645 2.0482-2.0622.871-.4978 1.8127-.7586 2.825-.7586 1.0358 0 1.9775.2371 2.825.7586zm-.6121 8.7229c.6592-.3793 1.1535-.9244 1.5302-1.5881s.5414-1.4223.5414-2.2282-.1883-1.5407-.5414-2.2281c-.3767-.6874-.871-1.2089-1.5302-1.6119-.6592-.3792-1.389-.5926-2.1894-.5926-.8239 0-1.5537.1897-2.2129.5926-.6592.3793-1.1535.9245-1.5302 1.6119s-.5415 1.4222-.5415 2.2281.1884 1.5408.5415 2.2282c.3767.6637.871 1.2088 1.5302 1.5881s1.389.5926 2.2129.5926c.8004-.0237 1.5302-.2133 2.1894-.5926zm14.5017.1422c.0235 0 .0235.0237.0235.0474s0 .0474-.0235.0474c-.518.4978-1.1065.9008-1.7892 1.1852-.6827.2845-1.389.4267-2.1423.4267-1.0123 0-1.954-.2607-2.825-.7585-.8711-.5215-1.5538-1.2089-2.0481-2.0622-.4944-.8771-.7534-1.8015-.7534-2.8445s.259-1.9911.7534-2.8444c.4943-.8771 1.2006-1.5645 2.0481-2.0622.871-.4978 1.8127-.7586 2.825-.7586.7533 0 1.4596.1423 2.1423.4267s1.2712.6637 1.7892 1.1615c.0235.0237.0235.0711 0 .0948l-.7769.8296c-.0236.0237-.0471.0237-.0471.0237-.0235 0-.0471 0-.0471-.0237-.3767-.3792-.8239-.6874-1.3419-.9007-.5414-.2371-1.0829-.3319-1.6714-.3319-.7769 0-1.5067.2134-2.1659.6163-.6591.403-1.177.9482-1.5537 1.6356s-.565 1.3985-.565 2.1807.1883 1.4934.565 2.1808.8946 1.2088 1.5537 1.6118c.6592.403 1.3655.6163 2.1659.6163.5885 0 1.1535-.1185 1.6714-.3318.518-.2134.9652-.5215 1.3419-.9245.0236-.0237.0706-.0237.1177 0zm10.9468-9.2918-.3296 1.1141c0 .0474-.0235.0711-.0706.0711h-3.8373v9.4577c0 .0474-.0235.0711-.0706.0711h-1.2477c-.0471 0-.0706-.0237-.0706-.0711v-9.4577h-3.6961c-.0471 0-.0706-.0237-.0941-.0711l-.3296-1.1141c-.0236-.0474 0-.0948.0706-.0948h9.605c.0706.0237.0942.0474.0706.0948zm8.4279.4029c.8711.4978 1.5538 1.1852 2.0482 2.0623.4943.877.7533 1.8252.7533 2.8444 0 1.0193-.259 1.9674-.7533 2.8445-.4944.877-1.1771 1.5644-2.0482 2.0622-.871.4977-1.8127.7585-2.825.7585-1.0122 0-1.9539-.2608-2.825-.7585-.871-.5215-1.5537-1.2089-2.0481-2.0622-.4944-.8771-.7533-1.8015-.7533-2.8445s.2589-1.9911.7533-2.8444c.4944-.8771 1.2006-1.5645 2.0481-2.0623.8711-.4977 1.8128-.7585 2.825-.7585 1.0359.0237 1.9775.2608 2.825.7585zm-.612 8.7467c.6591-.3793 1.1535-.9244 1.5302-1.5881.3531-.6637.5414-1.4223.5414-2.2282s-.1883-1.5407-.5414-2.2281c-.3532-.6874-.8711-1.2089-1.5302-1.6119-.6592-.3792-1.389-.5926-2.213-.5926-.8004 0-1.5302.1897-2.1893.5926-.6592.3793-1.1536.9245-1.5302 1.6119-.3767.6874-.5415 1.4222-.5415 2.2281s.1883 1.5408.5415 2.2282c.3766.6637.871 1.2088 1.5302 1.5881.6591.3793 1.3889.5926 2.1893.5926.824-.0237 1.5538-.2133 2.213-.5926zm13.8425 1.4696c.0235.0237.0235.0474.0235.0711s-.0235.0237-.0471.0237h-1.4596c-.0235 0-.0706-.0237-.0941-.0474l-2.7073-4.077h-2.7309v4.0533c0 .0474-.0235.0711-.0706.0711h-1.2477c-.0471 0-.0706-.0237-.0706-.0711v-9.4577h-.4709c-.047 0-.0706-.0237-.0706-.0711l-.3295-1.1141c-.0236-.0474-.0001-.0948.0706-.0948h5.7206c.5885 0 1.13.1422 1.6479.4503.4944.3082.8946.7111 1.2006 1.2089.3061.4978.4473 1.043.4473 1.6593 0 .5215-.1177 1.0192-.3295 1.4696-.2119.4504-.518.8296-.8946 1.1615-.3767.3081-.8005.5215-1.2948.64zm-7.0155-5.3096h3.4371c.4238 0 .7769-.0948 1.0594-.2844.3061-.1897.5179-.4504.6592-.7586.1412-.3081.2354-.6637.2354-1.0429 0-.3556-.0706-.6874-.2119-.9956-.1412-.3081-.3767-.5452-.6592-.7585s-.6591-.2844-1.0829-.2844h-3.4371zm27.1907-5.2859-3.4607 10.6192c-.0235.0237-.047.0474-.0941.0474h-1.5302c-.0471 0-.0707-.0237-.0707-.0474l-2.8014-8.5807-2.7779 8.5807c0 .0237-.0236.0474-.0707.0474h-1.4831c-.0471 0-.0706-.0237-.0941-.0474l-3.4607-10.6192c-.0235-.0474 0-.0948.0706-.0948h1.3184c.0471 0 .0706.0237.0706.0711l2.8486 9.1259 2.9191-9.1259c0-.0474.0236-.0711.0706-.0711h1.2477c.0471 0 .0707.0237.0707.0711l2.9191 9.1733 2.8486-9.1733c0-.0474.0235-.0711.0706-.0711h1.3183c.0707 0 .0942.0237.0707.0948zm32.9344 5.0252v.5689c0 .0474-.023.0711-.07.0711h-6.898c-.071 1.0429-.377 2.0148-.942 2.8918-.565.8771-1.294 1.5645-2.189 2.0859-.895.5215-1.883.7586-2.943.7586-.824 0-1.648-.166-2.425-.5215-.776-.3556-1.436-.8059-2.001-1.3985-.565-.5689-.941-1.1852-1.177-1.8015-.141-.3793-.212-.6874-.212-.9482 0-.1896.048-.3555.118-.5214.071-.166.189-.3082.33-.4741.023-.0237.023-.0237.023-.0474s-.023-.0237-.07-.0237h-3.037v4.9303c0 .0474-.024.0711-.071.0711h-1.248c-.047 0-.07-.0237-.07-.0711v-3.4844c0-.3556.047-.64.141-.8296.094-.1897.236-.3793.447-.5452.024-.0237.024-.0237.024-.0474s-.024-.0237-.047-.0237h-.542-5.626c-.306 0-.5886.0948-.7769.3081-.2119.2134-.3061.4741-.3061.8059v7.8223c0 .0474-.0235.0711-.0706.0711h-1.2477c-.0471 0-.0706-.0237-.0706-.0711v-7.4667c0-.3556.047-.64.1412-.8296.0942-.1897.259-.3793.4709-.5452.0235-.0237.0235-.0237.0235-.0474s-.0236-.0237-.0706-.0237h-.565-1.6715c-.0471 0-.0706-.0237-.0706-.0711v-.5689c0-.0474.0235-.0711.0706-.0711h1.6715v-4.9778c0-.0474.0235-.0711.0706-.0711h1.2477c.0471 0 .0706.0237.0706.0711v4.9778h6.709v-8.9837c0-.0474.024-.0711.071-.0711h1.248c.047 0 .07.0237.07.0711v8.9837h2.378c.047-1.0667.377-2.0386.918-2.9156.565-.877 1.295-1.5881 2.19-2.0859.894-.5215 1.883-.7585 2.942-.7585 1.06 0 2.048.2607 2.967.7585.918.5215 1.647 1.2089 2.189 2.0859.565.877.871 1.8489.918 2.9156h6.898c.047-.0237.07 0 .07.0474zm-15.372-4.0534c-.707.403-1.272.9482-1.695 1.6356-.424.6874-.66 1.4696-.73 2.3467h9.487c-.047-.8771-.282-1.6356-.706-2.3467-.424-.6874-.989-1.2326-1.695-1.6356-.706-.4029-1.483-.5926-2.354-.5926-.824 0-1.601.2134-2.307.5926zm4.684 8.6519c.707-.3793 1.272-.9245 1.672-1.6356.424-.6874.659-1.4696.73-2.3229h-9.488c.047.8533.283 1.6355.707 2.3229.423.6874.988 1.2326 1.695 1.6356.706.3792 1.483.5926 2.33.5926.871 0 1.672-.2134 2.354-.5926z"/><path d="m68.5435 0v8.39111h-8.8517v-8.39111zm-2.0952 5.54667c0-.75852-.4944-1.35111-1.3183-1.56445.2118-.11852.3766-.23703.5179-.42666.1648-.21334.2589-.49778.2589-.80593 0-.40296-.1412-.78222-.4708-1.09037s-.8239-.49778-1.5067-.49778h-1.8833v6.04444h2.2129c.8004 0 1.3419-.21333 1.695-.54518.3296-.30815.4944-.71111.4944-1.11407zm-1.4125-.68741c-.2119-.14222-.5179-.23704-.9887-.23704h-.9888v1.65926h1.0123c.5179 0 .8004-.11852.9887-.28444.1884-.16593.2355-.35556.2355-.56889.047-.23704-.0471-.42667-.259-.56889zm-.5179-1.39852c.1883-.14222.2825-.33185.2825-.6163 0-.18963-.0471-.37926-.2119-.49777-.1412-.11852-.3767-.21334-.7769-.21334h-.7298v1.56445h.4944c.4473-.0237.7534-.09482.9417-.23704zm-6.1679-3.46074v8.39111h-8.8517v-8.39111zm-2.1188 5.54667c0-.75852-.4944-1.35111-1.3183-1.56445.2119-.11852.4002-.23703.5179-.42666.1648-.21334.259-.49778.259-.80593 0-.40296-.1413-.78222-.4709-1.09037s-.8239-.49778-1.5066-.49778h-1.8834v6.04444h2.2129c.8005 0 1.3419-.21333 1.695-.54518.3532-.30815.4944-.71111.4944-1.11407zm-1.9069-2.08593c.1884-.14222.2825-.33185.2825-.6163 0-.18963-.047-.37926-.2118-.49777-.1413-.11852-.4002-.21334-.7769-.21334h-.7298v1.56445h.4944c.4237-.0237.7533-.09482.9416-.23704zm.518 1.39852c-.2119-.14222-.518-.23704-.9888-.23704h-.9652v1.65926h1.0123c.5179 0 .8239-.11852.9887-.28444.1884-.16593.2355-.35556.2355-.56889.0235-.23704-.0707-.42667-.2825-.56889zm23.8948-4.85926v8.39111h-8.8517v-8.39111zm-1.7657 5.59408-.1412.09481c-.6827.42667-1.4361.64-2.0952.64-1.4596 0-2.4013-.87704-2.4013-2.13334 0-1.23259 1.0123-2.13333 2.3777-2.15703.7063 0 1.3419.18963 2.0953.59259l.1412.07111v-1.11407l-.0471-.0237c-.8475-.33186-1.5067-.49778-2.1658-.49778-1.0123 0-1.8834.33185-2.4954.90074-.6121.56889-.9888 1.37481-.9888 2.27555 0 .64.259 1.39852.824 1.99111.565.5926 1.4125 1.01926 2.6131 1.01926.9888 0 1.6479-.21333 2.2835-.52148l.0471-.0237v-1.11407z"/></g></svg>